<svg width="36" height="33" viewBox="0 0 36 33" fill="none" xmlns="http://www.w3.org/2000/svg">
<path d="M4.6029 14.0598C4.24306 15.0146 3.8423 16.0485 3.4614 17.2445C2.65665 19.7712 2.8386 21.0358 2.41858 22.4681C1.62105 25.1878 1.87581 26.4611 1.71515 27.2389C1.51471 28.2092 1.39442 29.0936 1.33365 29.8319C1.30544 30.1745 1.15372 30.5701 1.01352 31.0081C0.949483 31.2081 0.913029 31.3671 5.87679 31.4484C10.8405 31.5298 20.809 31.5298 26.0634 31.5495C31.9631 31.5717 32.0998 31.4399 32.5 31.4997C32.7004 31.5297 33.2819 31.2845 33.4437 31.0081C34.2767 29.5857 34.5371 28.4451 33.4437 26.4997C32.8817 25.4997 32.5 24.4997 31.6066 22.7026C31.0907 21.6648 30.9441 20.8212 30.5 19.9997C30.0819 19.2263 29.8195 18.3977 29.5 17.4997C29.2137 16.6951 28.5137 15.7398 28.3921 15.0194C28.2724 14.3099 28.0311 13.7427 27.9113 13.3843C27.8027 13.0593 26.3979 12.9829 24.4537 13.0026C23.4213 13.0131 21.2302 13.1025 18.2028 13.1223C17.0816 13.1296 16.8038 13.1815 14.8933 13.2018C12.9827 13.2222 9.44812 13.2222 7.48825 13.2617C5.52838 13.3011 5.25038 13.3801 5.00788 13.4406C4.76537 13.501 4.5668 13.5405 4.24185 13.5811" stroke="black" stroke-width="2" stroke-linecap="round" stroke-linejoin="round"/>
<path d="M9.76052 12.9997C9.76052 12.528 9.60019 11.3476 9.27588 10.2182C8.7234 8.29411 9.11191 4.90522 9.47569 4.03533C9.77157 3.32783 10.2439 2.69139 11.5163 1.82327C12.5027 1.15025 13.3607 1.22893 14.0895 1.10923C15.7735 0.832632 18.054 1.06775 19.5735 1.95423C20.8768 2.71457 21.8631 4.02822 22.4716 5.13336C22.6745 5.9197 22.8372 6.5976 22.9587 7.91132C23 8.99039 23 10.9068 23 12.8812" stroke="black" stroke-width="2" stroke-linecap="round" stroke-linejoin="round"/>
</svg>
