<svg width="82" height="58" viewBox="0 0 82 58" fill="none" xmlns="http://www.w3.org/2000/svg">
<path d="M16.8629 23.2447C17.1394 23.1631 17.4023 23.2087 17.6516 23.3815C17.9192 23.5549 18.0938 23.7798 18.1755 24.0563C18.2558 24.3691 18.2096 24.6503 18.0368 24.8996C17.8646 25.1308 17.6403 25.2872 17.3639 25.3688C16.3493 25.6984 15.3519 26.056 14.3718 26.4416C13.3924 26.809 12.3787 27.1113 11.3308 27.3486C10.8156 27.4766 10.2923 27.5771 9.76081 27.6498C9.22996 27.7044 8.70037 27.7225 8.17204 27.7042C7.66193 27.6866 7.15403 27.6051 6.64834 27.4599C6.14265 27.3147 5.6577 27.0973 5.19349 26.8076C4.92527 26.6524 4.75977 26.4278 4.697 26.1337C4.65244 25.8404 4.69835 25.5683 4.83471 25.3177C5.59636 23.8666 6.45504 22.5102 7.41077 21.2482C8.38535 19.9687 9.42244 18.7278 10.522 17.5256C11.413 16.5533 12.2945 15.5897 13.1667 14.635C14.0388 13.6802 14.8764 12.6696 15.6794 11.603C14.9796 11.2687 14.2406 11.015 13.4623 10.8422C12.6846 10.6511 11.8952 10.5325 11.0942 10.4865C10.3121 10.4229 9.519 10.4137 8.71487 10.4588C7.92896 10.5045 7.16912 10.5876 6.43534 10.7081C6.14195 10.7527 5.86994 10.7068 5.6193 10.5704C5.36867 10.434 5.20317 10.2094 5.12281 9.89656C5.05941 9.62076 5.0962 9.34843 5.2332 9.07958C5.38904 8.79313 5.62277 8.62795 5.93437 8.58403C6.90625 8.4353 7.91267 8.34249 8.95364 8.3056C9.99523 8.25049 11.0337 8.28648 12.069 8.41355C13.1049 8.5224 14.1097 8.73962 15.0834 9.0652C16.0759 9.37319 17.0006 9.79739 17.8574 10.3378C18.1074 10.4924 18.2638 10.7167 18.3265 11.0107C18.4075 11.3054 18.3707 11.5777 18.2161 11.8277C17.3144 13.1097 16.3515 14.3167 15.3273 15.4486C14.3031 16.5804 13.2695 17.7211 12.2265 18.8706C11.2972 19.8963 10.4128 20.9418 9.57329 22.0072C8.75203 23.0731 7.99264 24.1959 7.29512 25.3756C7.9453 25.5623 8.61842 25.613 9.3145 25.5276C10.0112 25.4241 10.6819 25.2832 11.3264 25.1049C12.265 24.8638 13.187 24.5765 14.0923 24.2431C14.9983 23.8915 15.9218 23.5587 16.8629 23.2447ZM21.5455 27.8667C20.9356 27.5719 20.4566 27.1814 20.1087 26.6951C19.7796 26.1912 19.5522 25.6453 19.4267 25.0572C19.3194 24.4698 19.3038 23.8674 19.3799 23.2498C19.4566 22.6141 19.6053 22.0082 19.8259 21.4322C20.0057 20.9824 20.2043 20.515 20.4217 20.0301C20.6574 19.5458 20.9282 19.0991 21.2342 18.6902C21.5402 18.2813 21.8987 17.938 22.3096 17.6604C22.7211 17.3646 23.2017 17.1806 23.7514 17.1085C24.3194 17.0369 24.8851 17.0292 25.4486 17.0852C26.0309 17.1236 26.6029 17.1982 27.1645 17.3088C27.4183 17.3541 27.662 17.4264 27.8957 17.5257C28.13 17.6068 28.364 17.6969 28.5977 17.7962C28.6254 17.5236 28.7517 17.3 28.9766 17.1254C29.2198 16.9514 29.4689 16.8688 29.7239 16.8777C30.0337 16.8884 30.2758 17.0062 30.4504 17.2311C30.6439 17.4385 30.7538 17.6885 30.7801 17.9813C30.8422 18.8225 30.8496 19.6618 30.8023 20.4992C30.7733 21.3372 30.7169 22.1743 30.6332 23.0105C30.5677 23.8473 30.5023 24.684 30.4368 25.5208C30.3895 26.3582 30.3696 27.1966 30.377 28.0359C30.3832 28.3826 30.2648 28.643 30.0216 28.817C29.7973 28.9734 29.5485 29.0468 29.2753 29.0374C29.002 29.0279 28.7498 28.9371 28.5186 28.7649C28.3063 28.5752 28.197 28.3069 28.1908 27.9601C27.1372 28.3614 26.0262 28.5782 24.8577 28.6107C23.6898 28.625 22.5858 28.3769 21.5455 27.8667ZM21.9423 21.9433C21.8216 22.2674 21.7085 22.6374 21.6029 23.0533C21.4973 23.4691 21.456 23.869 21.4792 24.2528C21.5024 24.6367 21.6085 24.996 21.7976 25.3309C21.9872 25.6476 22.3076 25.8775 22.7586 26.0208C23.6776 26.3445 24.6039 26.4587 25.5375 26.3634C26.4892 26.2687 27.3842 25.9714 28.2223 25.4714C28.3261 24.5813 28.4108 23.7178 28.4762 22.881C28.5599 22.0449 28.6075 21.1984 28.619 20.3415C28.3162 20.1303 28.0034 19.9462 27.6805 19.7891C27.3765 19.6144 27.0341 19.4931 26.6534 19.4252C26.2727 19.3573 25.8641 19.3066 25.4275 19.2733C25.0097 19.2223 24.5998 19.2081 24.1977 19.2307C24.1613 19.2294 24.0602 19.2533 23.8943 19.3022C23.7473 19.3336 23.6644 19.3581 23.6455 19.3757C23.4602 19.4605 23.2912 19.6005 23.1385 19.7959C22.8903 20.1156 22.6684 20.4636 22.473 20.8399C22.2782 21.1979 22.1013 21.5657 21.9423 21.9433ZM35.4719 29.4436C35.2137 29.5259 34.9323 29.4888 34.6276 29.3323C34.3412 29.1764 34.1848 28.9521 34.1585 28.6594C33.959 27.0473 33.8499 25.4567 33.8313 23.8874C33.8316 22.3005 33.8595 20.7055 33.915 19.1022C33.9245 18.829 34.005 18.6129 34.1564 18.454C34.3078 18.2951 34.4847 18.1917 34.687 18.144C34.8893 18.0963 35.0991 18.0945 35.3164 18.1385C35.5338 18.1825 35.7128 18.2799 35.8535 18.4307C36.2845 18.0991 36.7413 17.8139 37.2238 17.5753C37.7063 17.3366 38.1857 17.1891 38.6619 17.1326C39.1569 17.0586 39.6388 17.1026 40.1074 17.2648C40.5766 17.4087 41.0132 17.7066 41.4171 18.1583C41.7506 18.5347 42.0376 18.9368 42.2782 19.3647C42.5193 19.7743 42.7322 20.2103 42.9168 20.6727C43.2141 19.9899 43.6188 19.3655 44.1309 18.7996C44.643 18.2336 45.2851 17.8637 46.0572 17.6898C46.627 17.5637 47.0721 17.6156 47.3924 17.8455C47.7134 18.0573 48.0121 18.3869 48.2884 18.8342C48.5823 19.3004 48.8486 19.7747 49.0873 20.2572C49.3441 20.7404 49.5825 21.232 49.8023 21.7321C50.022 22.2322 50.2327 22.732 50.4343 23.2315C50.6359 23.7309 50.8378 24.2213 51.04 24.7025C51.2767 25.2397 51.477 25.7756 51.6409 26.3102C51.8236 26.8273 51.9322 27.3783 51.9667 27.9631C51.9924 28.2741 51.8739 28.5345 51.6113 28.7443C51.3675 28.9365 51.109 29.0278 50.8357 29.0184C50.526 29.0076 50.2744 28.8986 50.081 28.6912C49.9064 28.4663 49.8062 28.1984 49.7805 27.8874C49.7592 27.4489 49.6553 27.0258 49.4688 26.618C49.3011 26.1927 49.1332 25.7765 48.9649 25.3694C48.779 24.9434 48.5934 24.5083 48.4082 24.0641C48.2411 23.6206 48.0647 23.1858 47.8788 22.7599C47.6929 22.3339 47.4888 21.9073 47.2665 21.4801C47.0624 21.0535 46.8398 20.6354 46.5986 20.2257C46.564 20.1698 46.5295 20.1139 46.495 20.058C46.4604 20.0021 46.4259 19.9461 46.3913 19.8902C46.02 20.078 45.7492 20.2601 45.579 20.4366C45.4087 20.6131 45.2453 20.8537 45.0888 21.1584C44.9518 21.4272 44.8324 21.7149 44.7306 22.0215C44.6476 22.3105 44.5734 22.6089 44.5081 22.9167C44.3786 23.4959 44.2754 24.1033 44.1987 24.7391C44.1458 25.2115 44.13 25.667 44.1513 26.1055C44.1908 26.5446 44.1568 26.9994 44.0493 27.4699C43.9846 27.7595 43.8039 27.9721 43.5074 28.1078C43.2291 28.2441 42.9545 28.271 42.6838 28.1887C42.4312 28.107 42.2444 27.9728 42.1232 27.7862C42.0208 27.582 41.9558 27.3518 41.9282 27.0955C41.8755 26.51 41.8144 25.9059 41.7448 25.2833C41.6751 24.6608 41.5779 24.0463 41.4529 23.4401C41.3287 22.8156 41.1579 22.2169 40.9406 21.6439C40.7422 21.0534 40.4693 20.5058 40.122 20.0013C39.8783 19.6646 39.6217 19.4368 39.3522 19.318C39.101 19.1999 38.7806 19.2344 38.3911 19.4215C37.9645 19.6256 37.5454 19.8756 37.1339 20.1714C36.7223 20.4672 36.3551 20.801 36.0321 21.1729C36.0099 22.3395 36.006 23.5067 36.0202 24.6746C36.0533 25.8249 36.1411 26.977 36.2835 28.1311C36.3092 28.4421 36.2539 28.7229 36.1175 28.9735C36 29.2065 35.7848 29.3633 35.4719 29.4436ZM54.4889 19.1311C54.8514 18.6694 55.2759 18.2646 55.7622 17.9167C56.2667 17.5694 56.7957 17.305 57.3492 17.1235C57.9033 16.9238 58.4719 16.8341 59.0548 16.8543C59.6385 16.8563 60.2177 16.9858 60.7924 17.2428C61.3496 17.481 61.8493 17.7993 62.2915 18.1976C62.7343 18.5778 63.0732 19.0638 63.308 19.6556C63.4933 20.0998 63.5953 20.5775 63.6141 21.0889C63.6328 21.6003 63.4801 22.0601 63.1559 22.4684C62.8693 22.8415 62.5222 23.1213 62.1144 23.3078C61.7249 23.495 61.3009 23.6262 60.8422 23.7015C60.4018 23.7775 59.9448 23.8072 59.4711 23.7908C59.0157 23.775 58.5788 23.7508 58.1604 23.718C57.6873 23.6834 57.2149 23.6306 56.7431 23.5595C56.2896 23.4891 55.8269 23.4183 55.3551 23.3472C55.4725 24.1721 55.7387 24.9109 56.1538 25.5637C56.569 26.2165 57.1444 26.7198 57.8799 27.0736C58.0778 27.1534 58.2308 27.2135 58.3388 27.2537C58.3928 27.2738 58.4378 27.2936 58.4736 27.3131C58.5282 27.315 58.5829 27.3169 58.6375 27.3188C58.7826 27.342 58.9004 27.3643 58.9909 27.3857C59.1002 27.3895 59.2007 27.3839 59.2924 27.3688C59.4206 27.355 59.5029 27.3487 59.5393 27.35C59.5946 27.3337 59.6499 27.3174 59.7052 27.301C59.9075 27.2533 60.0828 27.1956 60.231 27.1277C60.3975 27.0605 60.5929 26.9487 60.8172 26.7924C60.9297 26.7051 61.0802 26.5735 61.2687 26.3976C61.4572 26.2217 61.6177 26.0631 61.7503 25.9218C61.9413 25.6731 62.1659 25.5076 62.4241 25.4253C62.7006 25.3437 62.9726 25.3896 63.2402 25.563C63.4719 25.717 63.628 25.9504 63.7084 26.2633C63.8076 26.5585 63.7617 26.8305 63.5707 27.0793C63.0177 27.7715 62.368 28.36 61.6216 28.8449C60.8941 29.3122 60.0651 29.5479 59.1347 29.5522C58.3865 29.5627 57.6713 29.4103 56.9891 29.0948C56.3075 28.7611 55.7114 28.33 55.2008 27.8016C54.567 27.1412 54.0734 26.3854 53.7198 25.5341C53.3663 24.6828 53.1864 23.8193 53.1803 22.9436C53.0208 22.8104 52.8986 22.6511 52.8138 22.4657C52.7479 22.2628 52.7275 22.0615 52.7527 21.8617C52.796 21.6626 52.8752 21.4829 52.9902 21.3227C53.1058 21.1443 53.2739 21.0316 53.4944 20.9845C53.7182 20.3174 54.0497 19.6996 54.4889 19.1311ZM61.0247 20.0142C60.8332 19.7522 60.5313 19.5138 60.1193 19.2989C59.7782 19.1411 59.3708 19.054 58.8971 19.0376C58.4417 19.0218 58.0471 19.0903 57.7135 19.2429C57.2876 19.4287 56.9043 19.6982 56.5637 20.0512C56.2238 20.386 55.9461 20.7685 55.7305 21.1988C56.1659 21.2686 56.6012 21.3384 57.0366 21.4082C57.4719 21.478 57.9079 21.5296 58.3445 21.563C58.5813 21.5712 58.8182 21.5794 59.055 21.5876C59.2918 21.5958 59.529 21.5949 59.7665 21.5849C59.8393 21.5874 59.9031 21.5896 59.9577 21.5915C60.0313 21.5758 60.1044 21.5692 60.1773 21.5718C60.3425 21.541 60.4616 21.5269 60.5345 21.5294C60.6262 21.5143 60.7182 21.4902 60.8106 21.4569C60.8841 21.4412 60.9761 21.417 61.0867 21.3844C61.179 21.3511 61.2346 21.3257 61.2535 21.3081C61.2723 21.2905 61.3003 21.2732 61.3374 21.2563L61.4307 20.9312C61.3968 20.857 61.3717 20.7923 61.3554 20.7371C61.3579 20.6642 61.3419 20.5998 61.3073 20.5439C61.291 20.4886 61.2483 20.405 61.1792 20.2932C61.1284 20.182 61.0769 20.089 61.0247 20.0142ZM76.0829 21.3021C76.4284 21.3323 76.6882 21.469 76.8621 21.7121C77.0368 21.9371 77.1193 22.1862 77.1099 22.4594C77.1004 22.7327 77.0008 22.9755 76.811 23.1878C76.6213 23.4001 76.3533 23.5003 76.0072 23.4883C75.2244 23.4429 74.4332 23.379 73.6335 23.2966C72.852 23.2148 72.0607 23.1509 71.2598 23.1049C70.4777 23.0413 69.6852 23.0138 68.8823 23.0225C68.0976 23.0318 67.3114 23.0866 66.5236 23.187C66.212 23.2309 65.9306 23.1938 65.6793 23.0757C65.4469 22.94 65.2905 22.7157 65.2101 22.4028C65.1285 22.1264 65.1656 21.8449 65.3215 21.5585C65.4773 21.272 65.7107 21.116 66.0217 21.0903C66.8648 20.9736 67.706 20.9115 68.5453 20.9041C69.3852 20.8785 70.2239 20.8893 71.0613 20.9366C71.8987 20.9838 72.7355 21.0493 73.5716 21.133C74.4084 21.1985 75.2455 21.2548 76.0829 21.3021Z" fill="black"/>
<path d="M10.9641 45.078C11.3103 45.0665 11.569 45.1673 11.7403 45.3804C11.9298 45.593 12.0291 45.8359 12.0382 46.1092C12.0474 46.3824 11.9648 46.6406 11.7905 46.8835C11.6339 47.1076 11.3824 47.2254 11.0363 47.237C10.5996 47.2698 10.1624 47.2844 9.72451 47.2808C9.30426 47.2584 8.884 47.236 8.46375 47.2135C8.53006 48.6522 8.55083 50.0924 8.52604 51.5342C8.51948 52.9753 8.42152 54.4104 8.23216 55.8393C8.20607 56.1503 8.04971 56.3835 7.76308 56.539C7.47644 56.6945 7.19496 56.7313 6.91863 56.6493C6.60586 56.5685 6.38145 56.4028 6.2454 56.152C6.12817 55.9188 6.09171 55.6464 6.13602 55.3349C6.30838 53.9429 6.38053 52.5543 6.35248 51.1691C6.34265 49.7832 6.29608 48.3894 6.21277 46.9878C5.51679 46.9016 4.81171 46.8157 4.09751 46.7302C3.38271 46.6264 2.67763 46.5405 1.98226 46.4725C1.67132 46.4464 1.44721 46.2898 1.30994 46.0025C1.15384 45.6977 1.10796 45.4165 1.17232 45.159C1.25306 44.8462 1.41914 44.6309 1.67056 44.5131C1.92136 44.377 2.19312 44.3224 2.48584 44.3491C3.09012 44.4201 3.69469 44.5002 4.29957 44.5894C4.90384 44.6604 5.51722 44.7311 6.13971 44.8015C6.11845 44.711 6.10477 44.5747 6.09869 44.3925C6.04389 42.7528 5.9806 41.1316 5.90881 39.5289C5.85524 37.9257 5.88304 36.3014 5.99222 34.6562C6.01892 34.3635 6.11971 34.1048 6.29459 33.8801C6.4877 33.6548 6.73911 33.5369 7.04883 33.5266C7.32212 33.5174 7.58084 33.6182 7.82499 33.829C8.08736 34.0391 8.2052 34.2905 8.1785 34.5832C8.05475 36.3383 8.0218 38.0813 8.07963 39.8121C8.15508 41.524 8.24055 43.263 8.33604 45.0291C8.77451 45.0509 9.21298 45.0727 9.65146 45.0946C10.0893 45.0982 10.5269 45.0927 10.9641 45.078ZM20.0989 41.7086C20.6795 41.6162 21.2892 41.5776 21.9281 41.5928C22.5663 41.5897 23.1803 41.6786 23.77 41.8595C24.3591 42.0222 24.8969 42.287 25.3834 42.6537C25.8699 43.0205 26.251 43.5094 26.5268 44.1203C26.7236 44.5514 26.8296 44.9948 26.8448 45.4502C26.8776 45.8869 26.8282 46.3172 26.6964 46.7411C26.5823 47.1462 26.395 47.5446 26.1345 47.9363C25.8916 48.3092 25.6022 48.6563 25.2664 48.9776C24.542 49.6766 23.7413 50.2779 22.8644 50.7815C21.9875 51.285 21.0614 51.6807 20.0861 51.9687C19.6707 52.092 19.2368 52.2068 18.7843 52.3131C18.3495 52.4006 17.9044 52.4519 17.4489 52.4672C16.9934 52.4824 16.5455 52.4518 16.1052 52.3753C15.6643 52.2806 15.2486 52.1212 14.8581 51.8971C14.5793 51.7423 14.4081 51.5291 14.3443 51.2577C14.2246 50.9516 14.0964 50.6641 13.9598 50.395C13.8231 50.126 13.6861 49.8479 13.5489 49.5606C13.4298 49.2728 13.329 48.9843 13.2464 48.6953C13.1638 48.4062 13.1173 48.1068 13.1069 47.7971C13.0862 47.1776 13.1943 46.5903 13.4311 46.0353C13.6855 45.4613 14.0334 44.9572 14.4749 44.523C15.2157 43.7687 16.0799 43.1561 17.0673 42.6854C18.0548 42.2146 19.0653 41.8891 20.0989 41.7086ZM23.2655 43.9557C22.7675 43.7899 22.2362 43.7165 21.6714 43.7353C21.0695 43.7372 20.4704 43.8211 19.8741 43.9869C19.2771 44.1345 18.7093 44.3359 18.1706 44.591C17.6672 44.8085 17.1483 45.1085 16.6139 45.4912C16.0971 45.855 15.7197 46.2962 15.4817 46.8149C15.3451 47.093 15.2816 47.3778 15.2914 47.6694C15.3187 47.942 15.3737 48.2229 15.4563 48.512C15.5566 48.7822 15.6753 49.061 15.8126 49.3482C15.9675 49.6166 16.1041 49.8856 16.2226 50.1553C16.5165 50.2184 16.6999 50.2488 16.7728 50.2463C16.8098 50.2633 16.8557 50.2709 16.9103 50.2691C16.965 50.2673 17.0106 50.2657 17.047 50.2645C17.4126 50.2888 17.7402 50.2687 18.0299 50.2043C18.2303 50.1976 18.4842 50.1527 18.7914 50.0694C19.2621 49.9625 19.7136 49.8289 20.146 49.6685C20.5778 49.4899 20.9728 49.3034 21.3311 49.1091C21.7434 48.8947 22.1461 48.6623 22.539 48.4121C22.9319 48.1619 23.2607 47.9046 23.5255 47.6404C23.7022 47.4704 23.8695 47.2915 24.0274 47.1039C24.1154 47.0097 24.1767 46.9347 24.2114 46.8788C24.2982 46.7483 24.368 46.6547 24.4209 46.5982C24.4731 46.5235 24.5159 46.44 24.5493 46.3477C24.6179 46.2177 24.651 46.1163 24.6485 46.0435C24.6655 46.0064 24.6731 45.9606 24.6713 45.9059C24.6877 45.8506 24.7044 45.8045 24.7214 45.7674L24.7114 45.4668C24.6907 45.3945 24.6798 45.3402 24.6785 45.3038C24.6773 45.2673 24.667 45.2312 24.6476 45.1954C24.5886 45.0696 24.5309 44.9804 24.4745 44.9275C24.4356 44.8559 24.3876 44.7845 24.3305 44.7135C24.3493 44.7311 24.3211 44.7047 24.2458 44.6342C24.1887 44.5632 24.1507 44.5189 24.1319 44.5013L23.906 44.2899C23.8131 44.2383 23.7107 44.1779 23.599 44.1087C23.4872 44.0395 23.3761 43.9884 23.2655 43.9557ZM36.5725 51.6366C36.6539 51.8893 36.6265 52.1638 36.4905 52.4601C36.3545 52.7565 36.1417 52.9369 35.852 53.0013C34.8737 53.1981 33.8986 53.2216 32.9269 53.0717C31.9546 52.9035 31.0479 52.5143 30.2067 51.9041C29.3838 51.2932 28.7828 50.5016 28.4038 49.5294C28.0423 48.5383 27.9542 47.5381 28.1394 46.5287C28.3099 45.6293 28.7031 44.841 29.3188 44.1638C29.9346 43.4866 30.6463 42.9521 31.454 42.5603C32.1712 42.1898 32.9272 41.891 33.7222 41.6638C34.5171 41.4366 35.3166 41.346 36.1207 41.3921C36.4316 41.4182 36.6907 41.5281 36.8978 41.7218C37.1225 41.8967 37.24 42.139 37.2504 42.4487C37.2595 42.722 37.1587 42.9807 36.948 43.2249C36.7555 43.4684 36.5041 43.5863 36.1938 43.5784C35.6089 43.5432 35.0359 43.5897 34.4748 43.7179C33.9137 43.8461 33.3729 44.0374 32.8524 44.2919C32.5476 44.448 32.243 44.6132 31.9388 44.7876C31.6528 44.9613 31.4038 45.152 31.1919 45.3597C30.9623 45.5862 30.7692 45.8116 30.6125 46.0357C30.4741 46.2592 30.3733 46.5179 30.3102 46.8118C30.247 47.1058 30.2301 47.4164 30.2592 47.7437C30.2884 48.0711 30.354 48.3972 30.4561 48.7221C30.5757 49.0282 30.7312 49.3148 30.9226 49.582C31.1133 49.831 31.3392 50.0423 31.6004 50.216C32.1415 50.5809 32.7242 50.8259 33.3485 50.951C33.9905 51.0572 34.6102 51.0456 35.2078 50.9162C35.4975 50.8518 35.772 50.8791 36.0313 50.9981C36.2906 51.1171 36.471 51.33 36.5725 51.6366ZM39.5222 53.1249C39.2641 53.0423 39.0397 52.8765 38.849 52.6276C38.6759 52.3598 38.6394 52.0874 38.7396 51.8105C39.0207 50.9438 39.2013 50.0714 39.2814 49.1932C39.3615 48.3151 39.4046 47.4199 39.4106 46.5077C39.4197 46.2338 39.4199 45.9694 39.4114 45.7143C39.4023 45.441 39.4023 45.1674 39.4113 44.8935C39.3494 44.6767 39.3606 44.4666 39.445 44.2632C39.4638 43.7336 39.4826 43.204 39.5013 42.6744C39.5195 42.1267 39.5562 41.5874 39.6114 41.0566C39.6757 40.2519 39.7404 39.4563 39.8053 38.6699C39.8878 37.8646 39.9336 37.0514 39.9426 36.2303C39.9541 35.4821 39.9659 34.7431 39.978 34.0131C40.0077 33.2643 40.1752 32.5473 40.4806 31.8623C40.6343 31.5471 40.8471 31.3667 41.1192 31.3211C41.3906 31.2573 41.6472 31.2944 41.8889 31.4322C42.1301 31.5518 42.3098 31.7464 42.4283 32.0161C42.5649 32.2851 42.5565 32.5772 42.4028 32.8924C42.2674 33.207 42.1779 33.5292 42.1342 33.8589C42.0905 34.1887 42.0653 34.527 42.0587 34.8738C42.0702 35.2199 42.0818 35.5661 42.0934 35.9122C42.1049 36.2584 42.1071 36.5958 42.0998 36.9243C42.0361 37.7472 41.9724 38.5701 41.9087 39.393C41.8444 40.1977 41.7804 41.0115 41.7167 41.8344C42.4691 41.4262 43.3093 41.1884 44.2373 41.1209C44.9654 41.0783 45.7075 41.1812 46.4637 41.4295C47.2374 41.659 47.8708 42.0574 48.364 42.6245C48.6488 42.9616 48.8803 43.3369 49.0582 43.7504C49.2356 44.1458 49.3774 44.5696 49.4838 45.0221C49.6077 45.4557 49.6955 45.8996 49.7471 46.3539C49.7982 46.7899 49.8489 47.2168 49.8994 47.6346C49.9826 48.4891 50.0295 49.3448 50.0399 50.2017C50.0679 51.0398 50.0783 51.8967 50.071 52.7724C50.0826 53.1186 49.9727 53.3776 49.7413 53.5495C49.5106 53.7396 49.2586 53.8392 48.9853 53.8483C48.712 53.8575 48.463 53.7746 48.2383 53.5997C48.0142 53.443 47.9054 53.1913 47.9121 52.8445C47.906 52.1152 47.8998 51.3858 47.8937 50.6564C47.8876 49.9271 47.8541 49.1986 47.7933 48.4711C47.7447 48.1079 47.7049 47.7353 47.6739 47.3533C47.6429 46.9714 47.5845 46.5903 47.4989 46.2101C47.4564 46.0291 47.4141 45.8573 47.3722 45.6945C47.3479 45.5129 47.3054 45.332 47.2446 45.1516C47.2216 45.0065 47.1708 44.8531 47.0925 44.6916C47.0323 44.5294 46.9929 44.4396 46.974 44.422C46.9358 44.3685 46.9069 44.3239 46.8875 44.2881C46.8674 44.234 46.8383 44.1803 46.8 44.1268C46.63 43.9501 46.5264 43.8533 46.4894 43.8363C46.4147 43.784 46.3497 43.7497 46.2944 43.7333C46.2385 43.6987 46.1827 43.6641 46.1268 43.6295C45.9227 43.5269 45.6919 43.4434 45.4344 43.379C45.1769 43.3147 44.9298 43.2865 44.6929 43.2944C44.0723 43.2786 43.4929 43.4074 42.9548 43.6808C42.435 43.9535 41.9744 44.361 41.573 44.9034C41.5786 46.1617 41.5565 47.4118 41.5068 48.6538C41.4565 49.8775 41.2328 51.0979 40.8358 52.3149C40.7538 52.5913 40.588 52.8157 40.3384 52.9882C40.1071 53.1601 39.835 53.2056 39.5222 53.1249ZM52.9802 47.3128C52.9 47.0966 52.8833 46.8692 52.93 46.6305C52.7288 44.4303 52.5191 42.2486 52.3009 40.0854C52.0821 37.904 52.0179 35.7083 52.1082 33.4983C52.1343 33.1874 52.2351 32.9286 52.4106 32.7222C52.6037 32.4968 52.8551 32.379 53.1648 32.3686C53.4563 32.3589 53.7241 32.4594 53.9683 32.6701C54.2118 32.8626 54.3205 33.1143 54.2945 33.4253C54.2151 35.416 54.2626 37.3843 54.437 39.33C54.6109 41.2576 54.7948 43.2122 54.9887 45.1938C55.9876 44.522 56.9872 43.8685 57.9873 43.2332C59.0057 42.5972 59.9956 41.9258 60.9569 41.2188C61.2417 41.0087 61.5135 40.954 61.7722 41.0548C62.0485 41.1367 62.2544 41.294 62.3898 41.5266C62.5435 41.7586 62.607 42.0209 62.5803 42.3137C62.5536 42.6064 62.3978 42.8578 62.113 43.068C61.1517 43.7749 60.171 44.4461 59.1708 45.0814C58.1883 45.6979 57.1972 46.3329 56.1976 46.9864C57.4457 47.7655 58.685 48.554 59.9154 49.3519C61.1459 50.1498 62.3505 50.9941 63.5294 51.8849C63.7729 52.0774 63.8911 52.338 63.8838 52.6665C63.8759 52.9768 63.7751 53.2356 63.5814 53.4427C63.3519 53.6692 63.0911 53.7782 62.7989 53.7698C62.5251 53.7607 62.2666 53.669 62.0237 53.4947C60.9384 52.6737 59.8364 51.8989 58.7177 51.1702C57.599 50.4416 56.462 49.7135 55.3069 48.9861C55.3482 49.6778 55.3717 50.3792 55.3772 51.0904C55.4009 51.8009 55.4062 52.5029 55.3929 53.1965C55.3868 53.5615 55.2681 53.8299 55.0367 54.0018C54.8242 54.1913 54.5813 54.2906 54.308 54.2997C54.0347 54.3089 53.7857 54.226 53.561 54.0511C53.3369 53.8944 53.2279 53.6336 53.2339 53.2686C53.2375 52.2836 53.2137 51.2994 53.1626 50.3162C53.1291 49.3142 53.0683 48.313 52.9802 47.3128ZM66.7624 52.0232C66.1338 51.7706 65.6294 51.4135 65.2492 50.952C64.8866 50.4716 64.6227 49.9424 64.4574 49.3643C64.3104 48.7855 64.2539 48.1855 64.2878 47.5642C64.3212 46.9247 64.4283 46.3102 64.6093 45.7204C64.758 45.2595 64.9244 44.7797 65.1083 44.2811C65.3105 43.7819 65.5504 43.3179 65.8279 42.8891C66.1054 42.4603 66.4397 42.0935 66.8308 41.7886C67.2212 41.4655 67.6882 41.2492 68.2317 41.1399C68.7935 41.0299 69.3574 40.9837 69.9234 41.0013C70.507 41 71.0827 41.0355 71.6505 41.1077C71.9068 41.1356 72.1549 41.1912 72.3948 41.2744C72.6341 41.3393 72.8737 41.4134 73.1136 41.4966C73.1227 41.2227 73.2335 40.991 73.446 40.8015C73.6768 40.6114 73.9197 40.5121 74.1747 40.5036C74.4845 40.4932 74.7341 40.5943 74.9236 40.8068C75.1307 41.0006 75.2573 41.2426 75.3035 41.5328C75.4226 42.3679 75.487 43.2047 75.4968 44.0434C75.5248 44.8815 75.5255 45.7205 75.4989 46.5604C75.4904 47.3997 75.482 48.239 75.4736 49.0782C75.4833 49.9169 75.5205 50.7547 75.5849 51.5916C75.6147 51.9371 75.5142 52.2049 75.2834 52.395C75.0703 52.5663 74.8271 52.6565 74.5538 52.6656C74.2805 52.6748 74.0227 52.6013 73.7804 52.4453C73.5557 52.2704 73.4284 52.0102 73.3986 51.6646C72.3747 52.1366 71.281 52.4285 70.1174 52.5403C68.9532 52.6339 67.8349 52.4615 66.7624 52.0232ZM66.7555 46.0865C66.6571 46.4181 66.5694 46.7949 66.4923 47.217C66.4152 47.6391 66.4013 48.0408 66.4505 48.4222C66.4997 48.8036 66.63 49.1549 66.8414 49.4761C67.0522 49.7791 67.3874 49.9868 67.8471 50.0991C68.7861 50.3596 69.718 50.4105 70.6429 50.2519C71.586 50.0928 72.4587 49.7353 73.2609 49.1795C73.3039 48.2844 73.3296 47.4171 73.3381 46.5779C73.3647 45.738 73.3546 44.8902 73.3078 44.0345C72.9914 43.8444 72.6668 43.682 72.334 43.5472C72.0188 43.3936 71.6689 43.2958 71.2845 43.254C70.9001 43.2121 70.489 43.1893 70.0511 43.1857C69.6308 43.1633 69.2209 43.177 68.8213 43.2268C68.7849 43.228 68.6856 43.2587 68.5234 43.3189C68.3789 43.3602 68.2978 43.3902 68.2802 43.4091C68.1011 43.5062 67.942 43.6575 67.8029 43.8628C67.577 44.1986 67.3794 44.5609 67.21 44.9496C67.04 45.32 66.8885 45.699 66.7555 46.0865ZM79.8134 50.4106C80.0552 50.5484 80.2447 50.761 80.3819 51.0482C80.5192 51.3355 80.5466 51.6082 80.464 51.8663C80.365 52.1796 80.1904 52.4135 79.9402 52.5677C79.7471 52.7931 79.4954 52.9018 79.1851 52.8939C78.8754 52.9043 78.6169 52.8126 78.4098 52.6189C78.1293 52.4094 77.9501 52.233 77.8723 52.0897C77.7181 51.8395 77.664 51.5859 77.7101 51.329C77.7745 51.0715 77.9129 50.848 78.1255 50.6585C78.1607 50.6209 78.205 50.5829 78.2585 50.5446C78.3113 50.4882 78.3644 50.4408 78.4179 50.4025C78.5794 50.3242 78.6693 50.2847 78.6875 50.2841C78.7239 50.2829 78.8326 50.261 79.0136 50.2185C79.1594 50.2136 79.2693 50.2282 79.3434 50.2622C79.5268 50.2925 79.6835 50.342 79.8134 50.4106Z" fill="black"/>
</svg>
