<svg width="1326" height="15" viewBox="0 0 1326 15" fill="none" xmlns="http://www.w3.org/2000/svg">
<path d="M1 9.71503C24.083 9.71503 71.8554 10.6966 79.7976 11.4477C87.8007 12.2045 96.634 13.6712 126.068 13.9315C140.628 14.0602 153.152 6.74035 189.829 4.27143C219.008 2.30725 275.022 3.76575 305.564 4.01115C345.063 4.32853 353.939 6.23467 366.09 6.98575C375.347 7.55797 386.154 9.20933 446.955 9.46962C461.549 9.5321 491.529 8.22766 534.899 8.47308C550.295 8.5602 552.256 9.20933 610.447 9.46218C668.638 9.71503 782.997 9.71503 842.891 9.22421C904.764 8.71717 909.716 6.74035 916.141 6.00414C923.82 5.12429 932.502 2.27849 941.165 2.03307C947.416 1.85601 979.352 0.791117 1024.95 1.03653C1047.09 1.15566 1056.93 3.26008 1074.77 4.01115C1081.27 4.28474 1105.85 5.25306 1140.54 5.49846C1166.99 5.68557 1189.81 5.75874 1200.72 5.00765C1205.23 4.69726 1218.5 3.76575 1236.58 3.52035C1245.34 2.78416 1269.94 2.27849 1305.13 2.76929C1317.74 3.2601 1319.71 4.24171 1324.71 5.25306" stroke="black" stroke-width="2" stroke-linecap="round" stroke-linejoin="round"/>
</svg>
